<svg width="30" height="29" viewBox="0 0 30 29" fill="none" xmlns="http://www.w3.org/2000/svg">
<g clip-path="url(#clip0_81_374)">
<path d="M0 14.4913C0 15.352 0.729106 16.0546 1.58269 16.0546H13.0883V27.4191C13.0883 28.2624 13.7996 28.9826 14.671 28.9826C15.5424 28.9826 16.2715 28.2624 16.2715 27.4191V16.0546H27.7593C28.613 16.0546 29.3421 15.352 29.3421 14.4913C29.3421 13.6306 28.613 12.9104 27.7593 12.9104H16.2715V1.5633C16.2715 0.720172 15.5424 0 14.671 0C13.7996 0 13.0883 0.720172 13.0883 1.5633V12.9104H1.58269C0.729106 12.9104 0 13.6306 0 14.4913Z" fill="#B3B3B3"/>
</g>
<defs>
<clipPath id="clip0_81_374">
<rect width="30" height="29" fill="white"/>
</clipPath>
</defs>
</svg>
