<svg width="30" height="29" viewBox="0 0 30 29" fill="none" xmlns="http://www.w3.org/2000/svg">
<g clip-path="url(#clip0_81_364)">
<path d="M14.7399 27.2152C15.06 27.2152 15.3802 27.2018 15.7002 27.1752L16.4473 28.5725C16.6074 28.8919 16.9275 29.0516 17.301 28.985C17.6612 28.9185 17.9146 28.6524 17.9546 28.2798L18.1947 26.7361C18.8083 26.5765 19.4086 26.3501 19.9956 26.0974L21.1427 27.1087C21.4095 27.3483 21.7831 27.4282 22.1299 27.2285C22.4367 27.0555 22.5834 26.7095 22.4899 26.3369L22.1831 24.8332C22.69 24.4605 23.1969 24.048 23.6506 23.6089L25.0644 24.1944C25.4379 24.3407 25.7848 24.2477 26.0516 23.9416C26.265 23.6754 26.305 23.3028 26.1049 22.9834L25.2912 21.666C25.638 21.1471 25.9582 20.5881 26.2517 20.0025L27.7991 20.0558C28.1459 20.0824 28.4927 19.8961 28.5994 19.5236C28.7194 19.1776 28.5994 18.8316 28.3192 18.6053L27.1187 17.6472C27.2788 17.035 27.3855 16.3962 27.4389 15.731L28.8928 15.2652C29.2664 15.1454 29.5065 14.8659 29.5065 14.4934C29.5065 14.1075 29.2664 13.8412 28.8928 13.7216L27.4389 13.2558C27.3855 12.5904 27.2788 11.965 27.1187 11.3395L28.3192 10.3681C28.586 10.1551 28.7194 9.82246 28.5994 9.47646C28.4927 9.10387 28.1459 8.91756 27.7991 8.94418L26.2517 8.9841C25.9582 8.39858 25.638 7.85298 25.2912 7.30738L26.1049 5.98994C26.2916 5.69719 26.265 5.32458 26.0516 5.05843C25.7848 4.73905 25.4379 4.65921 25.0778 4.80559L23.6506 5.3645C23.1969 4.95197 22.69 4.52613 22.1831 4.15352L22.4899 2.6631C22.57 2.26389 22.4367 1.93119 22.1299 1.77152C21.7831 1.5719 21.4095 1.62514 21.1427 1.87797L19.9956 2.87602C19.4086 2.63649 18.8083 2.42357 18.1947 2.25058L17.9546 0.720231C17.9146 0.347626 17.6612 0.0814783 17.301 0.0149416C16.9275 -0.0515952 16.594 0.108093 16.4473 0.414163L15.7002 1.81143C15.3802 1.78482 15.06 1.77152 14.7399 1.77152C14.4064 1.77152 14.0996 1.78482 13.7661 1.81143L13.0325 0.414163C12.8724 0.108093 12.5522 -0.0515952 12.1787 0.0149416C11.8186 0.0814783 11.5918 0.347626 11.5251 0.720231L11.285 2.23726C10.6714 2.42357 10.0711 2.63649 9.47087 2.87602L8.33704 1.89128C8.05691 1.62514 7.69676 1.5719 7.33659 1.77152C7.04313 1.93119 6.90973 2.26389 6.98977 2.6631L7.28323 4.15352C6.78968 4.52613 6.26945 4.95197 5.81591 5.3645L4.40196 4.80559C4.04179 4.65921 3.69498 4.73905 3.42819 5.05843C3.21477 5.32458 3.17474 5.69719 3.3615 5.98994L4.18853 7.30738C3.84171 7.85298 3.5349 8.39858 3.2281 8.9841L1.68075 8.94418C1.32059 8.91756 0.987105 9.10387 0.880391 9.47646C0.760338 9.82246 0.867052 10.1551 1.16051 10.3681L2.36105 11.3395C2.20098 11.965 2.09426 12.5904 2.05425 13.2558L0.573588 13.7216C0.200088 13.828 0 14.1075 0 14.4934C0 14.8793 0.200088 15.1454 0.573588 15.2652L2.05425 15.731C2.09426 16.3962 2.20098 17.035 2.36105 17.6472L1.16051 18.6053C0.867052 18.8316 0.760338 19.1776 0.880391 19.5236C0.987105 19.8961 1.32059 20.0824 1.68075 20.0558L3.2281 20.0025C3.5349 20.5881 3.84171 21.1471 4.18853 21.666L3.37483 22.9834C3.18808 23.3028 3.20142 23.6754 3.42819 23.9416C3.69498 24.2477 4.04179 24.3407 4.41529 24.1944L5.81591 23.6089C6.26945 24.048 6.78968 24.4605 7.28323 24.8332L6.98977 26.3369C6.92307 26.7095 7.04313 27.0555 7.33659 27.2285C7.69676 27.4282 8.05691 27.3483 8.33704 27.1087L9.47087 26.0974C10.0711 26.3501 10.6714 26.5765 11.285 26.7494L11.5251 28.2798C11.5918 28.6524 11.8186 28.9185 12.1787 28.985C12.5522 29.0516 12.8724 28.8919 13.0325 28.5725L13.7661 27.1752C14.0863 27.2018 14.4064 27.2152 14.7399 27.2152ZM14.7399 25.0726C8.81725 25.0726 4.28191 20.3885 4.28191 14.5066C4.28191 8.6115 8.81725 3.91399 14.7399 3.91399C20.6626 3.91399 25.2245 8.6115 25.2245 14.5066C25.2245 20.3885 20.6626 25.0726 14.7399 25.0726ZM12.4189 12.4573L13.9928 11.4593L9.53757 3.83415L7.89684 4.75236L12.4189 12.4573ZM17.7146 15.3982H26.5852V13.5618H17.7146V15.3982ZM14.0196 17.5673L12.4589 16.5559L7.76344 24.1944L9.39084 25.1525L14.0196 17.5673ZM14.7132 17.9931C16.6474 17.9931 18.2081 16.4495 18.2081 14.52C18.2081 12.5904 16.6474 11.0334 14.7132 11.0334C12.779 11.0334 11.2317 12.5904 11.2317 14.52C11.2317 16.4495 12.779 17.9931 14.7132 17.9931ZM14.7132 15.9971C13.8728 15.9971 13.2192 15.3716 13.2192 14.52C13.2192 13.6683 13.8728 13.0162 14.7132 13.0162C15.5669 13.0162 16.2205 13.6683 16.2205 14.52C16.2205 15.3716 15.5669 15.9971 14.7132 15.9971Z" fill="white" fill-opacity="0.85"/>
</g>
<defs>
<clipPath id="clip0_81_364">
<rect width="30" height="29" fill="white"/>
</clipPath>
</defs>
</svg>
